solid OpenSCAD_Model
  facet normal -0.894154 0 0.447759
    outer loop
      vertex 13.75 13.75 37.4429
      vertex -5 32.5 0
      vertex -5 -5 0
    endloop
  endfacet
  facet normal 0 -0.894154 0.447759
    outer loop
      vertex 32.5 -5 0
      vertex 13.75 13.75 37.4429
      vertex -5 -5 0
    endloop
  endfacet
  facet normal 0 0 -1
    outer loop
      vertex 32.5 -5 0
      vertex -5 -5 0
      vertex -5 32.5 0
    endloop
  endfacet
  facet normal 0.707107 0.707107 0
    outer loop
      vertex 32.5 -5 0
      vertex -5 32.5 0
      vertex 13.75 13.75 37.4429
    endloop
  endfacet
  facet normal -0.707107 0.707107 0
    outer loop
      vertex 57.25 13.75 0
      vertex 38.5 -5 0
      vertex 57.25 13.75 37.4429
    endloop
  endfacet
  facet normal 0 -0.894154 0.447759
    outer loop
      vertex 76 -5 0
      vertex 57.25 13.75 37.4429
      vertex 38.5 -5 0
    endloop
  endfacet
  facet normal 0 0 -1
    outer loop
      vertex 76 -5 0
      vertex 38.5 -5 0
      vertex 57.25 13.75 0
    endloop
  endfacet
  facet normal 0.707107 0.707107 0
    outer loop
      vertex 76 -5 0
      vertex 57.25 13.75 0
      vertex 57.25 13.75 37.4429
    endloop
  endfacet
  facet normal -0.707107 -0.707107 0
    outer loop
      vertex 18.75 14.75 37.4429
      vertex 18.75 14.75 0
      vertex 37.5 -4 0
    endloop
  endfacet
  facet normal -0 0 -1
    outer loop
      vertex 18.75 14.75 0
      vertex 37.5 33.5 0
      vertex 37.5 -4 0
    endloop
  endfacet
  facet normal 0 -0 -1
    outer loop
      vertex 37.5 -4 0
      vertex 37.5 33.5 0
      vertex 56.25 14.75 0
    endloop
  endfacet
  facet normal -0.707107 0.707107 0
    outer loop
      vertex 18.75 14.75 0
      vertex 18.75 14.75 37.4429
      vertex 37.5 33.5 0
    endloop
  endfacet
  facet normal -0.707107 0.707107 0
    outer loop
      vertex 37.5 33.5 0
      vertex 18.75 14.75 37.4429
      vertex 37.5 33.5 74.8858
    endloop
  endfacet
  facet normal 1.9853e-016 -0.894154 0.447759
    outer loop
      vertex 37.5 -4 0
      vertex 56.25 14.75 37.4429
      vertex 37.5 33.5 74.8858
    endloop
  endfacet
  facet normal 0 -0.894154 0.447759
    outer loop
      vertex 18.75 14.75 37.4429
      vertex 37.5 -4 0
      vertex 37.5 33.5 74.8858
    endloop
  endfacet
  facet normal 0.707107 -0.707107 0
    outer loop
      vertex 56.25 14.75 37.4429
      vertex 37.5 -4 0
      vertex 56.25 14.75 0
    endloop
  endfacet
  facet normal 0.707107 0.707107 0
    outer loop
      vertex 56.25 14.75 0
      vertex 37.5 33.5 0
      vertex 37.5 33.5 74.8858
    endloop
  endfacet
  facet normal 0.707107 0.707107 -0
    outer loop
      vertex 56.25 14.75 37.4429
      vertex 56.25 14.75 0
      vertex 37.5 33.5 74.8858
    endloop
  endfacet
  facet normal -0.894154 0 0.447759
    outer loop
      vertex 13.75 56.25 37.4429
      vertex -5 75 0
      vertex 13.75 18.75 37.4429
    endloop
  endfacet
  facet normal -0.894154 0 0.447759
    outer loop
      vertex 13.75 18.75 37.4429
      vertex -5 75 0
      vertex -5 37.5 0
    endloop
  endfacet
  facet normal -0.707107 -0.707107 0
    outer loop
      vertex 13.75 18.75 37.4429
      vertex -5 37.5 0
      vertex 13.75 18.75 0
    endloop
  endfacet
  facet normal -0 -0 -1
    outer loop
      vertex -5 37.5 0
      vertex -5 75 0
      vertex 13.75 18.75 0
    endloop
  endfacet
  facet normal 0 0 -1
    outer loop
      vertex 13.75 18.75 0
      vertex -5 75 0
      vertex 13.75 56.25 0
    endloop
  endfacet
  facet normal 1 0 -0
    outer loop
      vertex 13.75 18.75 37.4429
      vertex 13.75 18.75 0
      vertex 13.75 56.25 0
    endloop
  endfacet
  facet normal 1 0 0
    outer loop
      vertex 13.75 56.25 37.4429
      vertex 13.75 18.75 37.4429
      vertex 13.75 56.25 0
    endloop
  endfacet
  facet normal 0.707107 0.707107 0
    outer loop
      vertex 13.75 56.25 0
      vertex -5 75 0
      vertex 13.75 56.25 37.4429
    endloop
  endfacet
  facet normal 0.707107 -0.707107 0
    outer loop
      vertex 16.75 16.75 37.4429
      vertex 16.75 16.75 0
      vertex 35.5 35.5 0
    endloop
  endfacet
  facet normal 0.707107 -0.707107 0
    outer loop
      vertex 35.5 35.5 74.8858
      vertex 16.75 16.75 37.4429
      vertex 35.5 35.5 0
    endloop
  endfacet
  facet normal 0 0 -1
    outer loop
      vertex 35.5 35.5 0
      vertex 16.75 16.75 0
      vertex 16.75 54.25 0
    endloop
  endfacet
  facet normal -1 -0 -0
    outer loop
      vertex 16.75 16.75 0
      vertex 16.75 16.75 37.4429
      vertex 16.75 54.25 0
    endloop
  endfacet
  facet normal -1 0 0
    outer loop
      vertex 16.75 54.25 0
      vertex 16.75 16.75 37.4429
      vertex 16.75 54.25 37.4429
    endloop
  endfacet
  facet normal -0.894154 0 0.447759
    outer loop
      vertex 35.5 35.5 74.8858
      vertex 16.75 54.25 37.4429
      vertex 16.75 16.75 37.4429
    endloop
  endfacet
  facet normal 0.707107 0.707107 0
    outer loop
      vertex 16.75 54.25 0
      vertex 16.75 54.25 37.4429
      vertex 35.5 35.5 0
    endloop
  endfacet
  facet normal 0.707107 0.707107 0
    outer loop
      vertex 35.5 35.5 0
      vertex 16.75 54.25 37.4429
      vertex 35.5 35.5 74.8858
    endloop
  endfacet
  facet normal -0.707107 -0.707107 0
    outer loop
      vertex 39.5 35.5 74.8858
      vertex 39.5 35.5 0
      vertex 77 -2 0
    endloop
  endfacet
  facet normal 0 0 -1
    outer loop
      vertex 77 -2 0
      vertex 39.5 35.5 0
      vertex 77 73 0
    endloop
  endfacet
  facet normal -0.707107 0.707107 0
    outer loop
      vertex 77 73 0
      vertex 39.5 35.5 0
      vertex 39.5 35.5 74.8858
    endloop
  endfacet
  facet normal 0.894154 0 0.447759
    outer loop
      vertex 77 -2 0
      vertex 77 73 0
      vertex 39.5 35.5 74.8858
    endloop
  endfacet
  facet normal 0 0.894154 0.447759
    outer loop
      vertex 37.5 37.5 74.8858
      vertex 75 75 0
      vertex 0 75 0
    endloop
  endfacet
  facet normal -0.707107 -0.707107 0
    outer loop
      vertex 37.5 37.5 74.8858
      vertex 0 75 0
      vertex 37.5 37.5 0
    endloop
  endfacet
  facet normal 0 -0 -1
    outer loop
      vertex 37.5 37.5 0
      vertex 0 75 0
      vertex 75 75 0
    endloop
  endfacet
  facet normal 0.707107 -0.707107 0
    outer loop
      vertex 37.5 37.5 74.8858
      vertex 37.5 37.5 0
      vertex 75 75 0
    endloop
  endfacet
endsolid OpenSCAD_Model
